<svg width="23" height="23" viewBox="0 0 23 23" fill="none" xmlns="http://www.w3.org/2000/svg">
<rect width="23" height="23" rx="11.5" fill="black"/>
<path d="M5.5 6.66666C5.5 6.38957 5.72292 6.16666 6 6.16666H6.94792C7.40625 6.16666 7.8125 6.43332 8.00208 6.83332H16.5646C17.1125 6.83332 17.5125 7.35416 17.3688 7.88332L16.5146 11.0562C16.3375 11.7104 15.7438 12.1667 15.0667 12.1667H9.05625L9.16875 12.7604C9.21458 12.9958 9.42083 13.1667 9.66042 13.1667H15.6667C15.9438 13.1667 16.1667 13.3896 16.1667 13.6667C16.1667 13.9437 15.9438 14.1667 15.6667 14.1667H9.66042C8.93958 14.1667 8.32083 13.6542 8.1875 12.9479L7.1125 7.30207C7.09792 7.22291 7.02917 7.16666 6.94792 7.16666H6C5.72292 7.16666 5.5 6.94374 5.5 6.66666ZM8.16667 15.8333C8.16667 15.702 8.19253 15.572 8.24279 15.4506C8.29304 15.3293 8.3667 15.2191 8.45956 15.1262C8.55242 15.0334 8.66266 14.9597 8.78398 14.9094C8.90531 14.8592 9.03534 14.8333 9.16667 14.8333C9.29799 14.8333 9.42802 14.8592 9.54935 14.9094C9.67068 14.9597 9.78092 15.0334 9.87377 15.1262C9.96663 15.2191 10.0403 15.3293 10.0905 15.4506C10.1408 15.572 10.1667 15.702 10.1667 15.8333C10.1667 15.9646 10.1408 16.0947 10.0905 16.216C10.0403 16.3373 9.96663 16.4476 9.87377 16.5404C9.78092 16.6333 9.67068 16.7069 9.54935 16.7572C9.42802 16.8075 9.29799 16.8333 9.16667 16.8333C9.03534 16.8333 8.90531 16.8075 8.78398 16.7572C8.66266 16.7069 8.55242 16.6333 8.45956 16.5404C8.3667 16.4476 8.29304 16.3373 8.24279 16.216C8.19253 16.0947 8.16667 15.9646 8.16667 15.8333ZM15.1667 14.8333C15.4319 14.8333 15.6862 14.9387 15.8738 15.1262C16.0613 15.3138 16.1667 15.5681 16.1667 15.8333C16.1667 16.0985 16.0613 16.3529 15.8738 16.5404C15.6862 16.728 15.4319 16.8333 15.1667 16.8333C14.9015 16.8333 14.6471 16.728 14.4596 16.5404C14.272 16.3529 14.1667 16.0985 14.1667 15.8333C14.1667 15.5681 14.272 15.3138 14.4596 15.1262C14.6471 14.9387 14.9015 14.8333 15.1667 14.8333Z" fill="white"/>
</svg>
