<svg width="25" height="25" viewBox="0 0 25 25" fill="none" xmlns="http://www.w3.org/2000/svg">
<rect width="25" height="25" rx="12.5" fill="#4F4F4F"/>
<path d="M14.0492 11.8555C14.0914 12.0828 14.1219 12.3102 14.1219 12.6055C14.1219 15.1766 12.3969 17 9.79999 17C7.31327 17 5.29999 14.9867 5.29999 12.5C5.29999 10.0133 7.31327 8 9.79999 8C11.0164 8 12.0289 8.44297 12.8141 9.17891L11.593 10.3508C11.2625 10.032 10.6789 9.65703 9.79999 9.65703C8.26483 9.65703 7.01327 10.9273 7.01327 12.5C7.01327 14.0727 8.26483 15.343 9.79999 15.343C11.5812 15.343 12.2492 14.0609 12.3547 13.4023H9.79999V11.8555H14.0492ZM18.3945 12.0055V10.7H17.082V12.0055H15.7766V13.318H17.082V14.6234H18.3945V13.318H19.7V12.0055H18.3945Z" fill="black"/>
</svg>
