<svg width="25" height="25" viewBox="0 0 25 25" fill="none" xmlns="http://www.w3.org/2000/svg">
<rect width="25" height="25" rx="12.5" fill="#4F4F4F"/>
<path d="M12.5029 9.13086C10.6396 9.13086 9.13672 10.6338 9.13672 12.4971C9.13672 14.3604 10.6396 15.8633 12.5029 15.8633C14.3662 15.8633 15.8691 14.3604 15.8691 12.4971C15.8691 10.6338 14.3662 9.13086 12.5029 9.13086ZM12.5029 14.6855C11.2988 14.6855 10.3145 13.7041 10.3145 12.4971C10.3145 11.29 11.2959 10.3086 12.5029 10.3086C13.71 10.3086 14.6914 11.29 14.6914 12.4971C14.6914 13.7041 13.707 14.6855 12.5029 14.6855ZM16.792 8.99316C16.792 9.42969 16.4404 9.77832 16.0068 9.77832C15.5703 9.77832 15.2217 9.42676 15.2217 8.99316C15.2217 8.55957 15.5732 8.20801 16.0068 8.20801C16.4404 8.20801 16.792 8.55957 16.792 8.99316ZM19.0215 9.79004C18.9717 8.73828 18.7314 7.80664 17.9609 7.03906C17.1934 6.27148 16.2617 6.03125 15.21 5.97852C14.126 5.91699 10.877 5.91699 9.79297 5.97852C8.74414 6.02832 7.8125 6.26855 7.04199 7.03613C6.27148 7.80371 6.03418 8.73535 5.98145 9.78711C5.91992 10.8711 5.91992 14.1201 5.98145 15.2041C6.03125 16.2559 6.27148 17.1875 7.04199 17.9551C7.8125 18.7227 8.74121 18.9629 9.79297 19.0156C10.877 19.0771 14.126 19.0771 15.21 19.0156C16.2617 18.9658 17.1934 18.7256 17.9609 17.9551C18.7285 17.1875 18.9688 16.2559 19.0215 15.2041C19.083 14.1201 19.083 10.874 19.0215 9.79004ZM17.6211 16.3672C17.3926 16.9414 16.9502 17.3838 16.373 17.6152C15.5088 17.958 13.458 17.8789 12.5029 17.8789C11.5479 17.8789 9.49414 17.9551 8.63281 17.6152C8.05859 17.3867 7.61621 16.9443 7.38477 16.3672C7.04199 15.5029 7.12109 13.4521 7.12109 12.4971C7.12109 11.542 7.04492 9.48828 7.38477 8.62695C7.61328 8.05273 8.05566 7.61035 8.63281 7.37891C9.49707 7.03613 11.5479 7.11523 12.5029 7.11523C13.458 7.11523 15.5117 7.03906 16.373 7.37891C16.9473 7.60742 17.3896 8.0498 17.6211 8.62695C17.9639 9.49121 17.8848 11.542 17.8848 12.4971C17.8848 13.4521 17.9639 15.5059 17.6211 16.3672Z" fill="black"/>
</svg>
