<svg width="25" height="25" viewBox="0 0 25 25" fill="none" xmlns="http://www.w3.org/2000/svg">
<rect width="25" height="25" rx="12.5" fill="#4F4F4F"/>
<path d="M12.8516 5.19043C9.8457 5.19043 6.875 7.19434 6.875 10.4375C6.875 12.5 8.03516 13.6719 8.73828 13.6719C9.02832 13.6719 9.19531 12.8633 9.19531 12.6348C9.19531 12.3623 8.50098 11.7822 8.50098 10.6484C8.50098 8.29297 10.2939 6.62305 12.6143 6.62305C14.6094 6.62305 16.0859 7.75684 16.0859 9.83984C16.0859 11.3955 15.4619 14.3135 13.4404 14.3135C12.7109 14.3135 12.0869 13.7861 12.0869 13.0303C12.0869 11.9229 12.8604 10.8506 12.8604 9.70801C12.8604 7.76855 10.1094 8.12012 10.1094 10.4639C10.1094 10.9561 10.1709 11.501 10.3906 11.9492C9.98633 13.6895 9.16016 16.2822 9.16016 18.0752C9.16016 18.6289 9.23926 19.1738 9.29199 19.7275C9.3916 19.8389 9.3418 19.8271 9.49414 19.7715C10.9707 17.75 10.918 17.3545 11.5859 14.709C11.9463 15.3945 12.8779 15.7637 13.6162 15.7637C16.7275 15.7637 18.125 12.7314 18.125 9.99805C18.125 7.08887 15.6113 5.19043 12.8516 5.19043Z" fill="black"/>
</svg>
