<svg width="25" height="25" viewBox="0 0 25 25" fill="none" xmlns="http://www.w3.org/2000/svg">
<rect width="25" height="25" rx="12.5" fill="#4F4F4F"/>
<path d="M16.9635 9.78386C16.9714 9.90105 16.9714 10.0208 16.9714 10.138C16.9714 13.75 14.2214 17.9141 9.19531 17.9141C7.64583 17.9141 6.20833 17.4662 5 16.6875C5.21875 16.7136 5.43229 16.7214 5.65885 16.7214C6.9375 16.7214 8.11198 16.2891 9.05208 15.5547C7.85156 15.5287 6.84375 14.7422 6.4974 13.6589C6.66667 13.6849 6.83594 13.7005 7.01302 13.7005C7.25781 13.7005 7.5026 13.6667 7.73177 13.6068C6.47917 13.3542 5.54167 12.2526 5.54167 10.9245V10.8906C5.90625 11.0938 6.32812 11.2214 6.77604 11.237C6.03906 10.7474 5.55729 9.90886 5.55729 8.96095C5.55729 8.45314 5.69271 7.98699 5.92969 7.58074C7.27604 9.23959 9.29688 10.3229 11.5651 10.4401C11.5234 10.237 11.4974 10.0261 11.4974 9.81511C11.4974 8.30991 12.7161 7.08334 14.2292 7.08334C15.0156 7.08334 15.7266 7.41407 16.2266 7.94532C16.8438 7.82814 17.4375 7.59897 17.9609 7.28647C17.7578 7.92189 17.3255 8.45314 16.7604 8.79168C17.3099 8.73178 17.8438 8.58074 18.3333 8.3698C17.9609 8.91147 17.4948 9.39324 16.9635 9.78386Z" fill="black"/>
</svg>
