<svg width="25" height="25" viewBox="0 0 25 25" fill="none" xmlns="http://www.w3.org/2000/svg">
<rect width="25" height="25" rx="12.5" fill="#4F4F4F"/>
<path d="M19.3151 9.0651C19.1511 8.44792 18.6693 7.96354 18.0573 7.79948C16.9479 7.5 12.5 7.5 12.5 7.5C12.5 7.5 8.05209 7.5 6.94272 7.79948C6.33074 7.96354 5.84897 8.44792 5.68491 9.0651C5.38803 10.1823 5.38803 12.5104 5.38803 12.5104C5.38803 12.5104 5.38803 14.8385 5.68491 15.9557C5.84897 16.5729 6.33074 17.0365 6.94272 17.2005C8.05209 17.5 12.5 17.5 12.5 17.5C12.5 17.5 16.9479 17.5 18.0573 17.2005C18.6693 17.0365 19.1511 16.5703 19.3151 15.9557C19.612 14.8385 19.612 12.5104 19.612 12.5104C19.612 12.5104 19.612 10.1823 19.3151 9.0651ZM11.0469 14.625V10.3958L14.763 12.5104L11.0469 14.625Z" fill="black"/>
</svg>
